# xmcd
#
# Track frame offsets:
#	225
#	16670
#	29955
#	44198
#	59550
#	71984
#	87842
#	101857
#	117003
#	135155
#	155400
#	171564
#	188648
#	198845
#	220013
#
# Disc length: 3220 seconds
#
# Revision: 0
# Processed by: cddbd v1.5.2PL0 Copyright (c) Steve Scherf et al.
# Submitted via: EasyCDDAExtractor 10.2.0.1
#
DISCID=db0c910f
DTITLE=Piotruś Uszyński - dobry czy zły
DYEAR=1997
DGENRE=
TTITLE0=Dobry czy zły
TTITLE1=Z nami śpiewaj
TTITLE2=Lato wołam Cię
TTITLE3=Dziwny jest ten świat
TTITLE4=Odpowiedz mamo
TTITLE5=Uśmiechnij się
TTITLE6=Przyjaciel naszych łez
TTITLE7=Sen o Warszawie
TTITLE8=Nauczyli nas żyć
TTITLE9=WIrujący świat
TTITLE10=O le, o la
TTITLE11=Baśniowe sny
TTITLE12=Żeby Ci się dobrze spało
TTITLE13=Dobry czy zły - Dance Mix
TTITLE14=Uśmiechnij się - Club Mix
EXTD=
EXTT0=
EXTT1=
EXTT2=
EXTT3=
EXTT4=
EXTT5=
EXTT6=
EXTT7=
EXTT8=
EXTT9=
EXTT10=
EXTT11=
EXTT12=
EXTT13=
EXTT14=
PLAYORDER=
